<svg width="32" height="32" viewBox="0 0 32 32" fill="none" xmlns="http://www.w3.org/2000/svg">
  <rect width="32" height="32" rx="4" fill="#000000"/>
  <path d="M16 5C12.5 5 10 7.5 10 11C10 12.3 10.4 13.4 11 14.3C10.4 15 10 15.9 10 17C10 19.2 11.8 21 14 21H18C20.2 21 22 19.2 22 17C22 15.9 21.6 15 21 14.3C21.6 13.4 22 12.3 22 11C22 7.5 19.5 5 16 5Z" fill="#C87137"/>
  <path d="M14 13C14.6 13 15 12.6 15 12C15 11.4 14.6 11 14 11C13.4 11 13 11.4 13 12C13 12.6 13.4 13 14 13Z" fill="#000000"/>
  <path d="M18 13C18.6 13 19 12.6 19 12C19 11.4 18.6 11 18 11C17.4 11 17 11.4 17 12C17 12.6 17.4 13 18 13Z" fill="#000000"/>
  <path d="M16 15C15.4 15 15 15.4 15 16C15 16.6 15.4 17 16 17C16.6 17 17 16.6 17 16C17 15.4 16.6 15 16 15Z" fill="#000000"/>
  <path d="M10 17V24C10 25.1 10.9 26 12 26H14V21H18V26H20C21.1 26 22 25.1 22 24V17C22 19.2 20.2 21 18 21H14C11.8 21 10 19.2 10 17Z" fill="#1E88E5"/>
</svg>
